<svg width="512" height="512" viewBox="0 0 512 512" fill="none" xmlns="http://www.w3.org/2000/svg">
<rect width="512" height="512" fill="#0F081E"/>
<path d="M330.17 240.64C330.17 234.702 325.352 229.888 319.41 229.888C313.467 229.888 308.65 234.702 308.65 240.64V390.656H289.179V307.2C289.179 301.262 284.361 296.448 278.419 296.448C272.476 296.448 267.659 301.262 267.659 307.2V390.656H248.188V325.632C248.188 319.694 243.37 314.88 237.428 314.88C231.485 314.88 226.668 319.694 226.668 325.632V390.656H207.197V305.152C207.197 299.214 202.379 294.4 196.437 294.4C190.494 294.4 185.676 299.214 185.676 305.152V390.656H166.206V315.904C166.206 309.966 161.388 305.152 155.446 305.152C149.503 305.152 144.685 309.966 144.685 315.904V390.656H126.239L126.239 316.416C126.239 309.63 120.734 304.128 113.942 304.128C107.15 304.128 101.645 309.63 101.645 316.416L101.645 415.232L414.714 415.232V316.416C414.714 309.63 409.208 304.128 402.417 304.128C395.625 304.128 390.119 309.63 390.119 316.416V390.656H371.161V300.032C371.161 294.094 366.343 289.28 360.401 289.28C354.458 289.28 349.641 294.094 349.641 300.032V390.656H330.17V240.64Z" fill="#6237C6"/>
<path fill-rule="evenodd" clip-rule="evenodd" d="M102.166 96.256V264.27C96.9016 264.162 92.2206 263.629 88.817 263.06C82.9604 262.079 77.4178 266.032 76.4373 271.889C75.4568 277.745 79.4097 283.288 85.2664 284.268C94.1489 285.755 110.994 287.247 127.45 283.06C144.304 278.772 161.895 268.08 168.367 244.8C173.192 227.441 180.319 224.08 183.137 223.985C186.425 223.876 194.913 227.319 203.554 246.363C208.46 257.174 214.063 266.33 220.669 272.414C227.591 278.787 236.637 282.543 246.691 279.465C255.671 276.717 262.89 269.184 268.881 259.933C275.06 250.393 280.996 237.363 286.771 220.904C292.127 205.64 298.089 195.43 303.84 189.18C309.489 183.042 314.467 181.161 318.459 181.086C322.59 181.008 327.779 182.824 333.779 188.222C339.793 193.631 346.016 202.143 351.771 213.884C364.105 239.047 374.558 256.487 385.702 267.586C388.571 270.443 391.476 272.872 394.441 274.912C395.281 275.629 396.219 276.235 397.231 276.707C405.744 281.812 414.803 283.904 424.962 283.904C430.9 283.904 435.714 279.09 435.714 273.152C435.714 267.214 430.9 262.4 424.962 262.4C421.216 262.4 417.863 262.02 414.705 261.089V96.256H102.166ZM390.129 238.823V120.832H126.742V260.83C136.589 257.33 144.368 250.841 147.648 239.04C153.07 219.535 164.624 203.088 182.419 202.493C199.744 201.915 213.801 216.904 223.137 237.477C227.582 247.274 231.746 253.382 235.236 256.594C238.405 259.513 239.783 259.091 240.395 258.904L240.397 258.903C242.082 258.387 245.767 256.064 250.832 248.243C255.71 240.711 260.982 229.453 266.48 213.784C272.397 196.92 279.596 183.77 288.016 174.62C296.538 165.358 306.739 159.799 318.055 159.586C329.232 159.376 339.478 164.424 348.161 172.234C356.83 180.033 364.538 191.073 371.08 204.42C378.364 219.28 384.549 230.451 390.129 238.823Z" fill="#FBFFF9"/>
</svg>
