<svg width="104" height="93" viewBox="0 0 104 93" fill="none" xmlns="http://www.w3.org/2000/svg">
<path d="M73.1239 41.7776C73.1239 40.0594 71.7299 38.6665 70.0104 38.6665C68.2909 38.6665 66.897 40.0594 66.897 41.7776V85.1848H61.2631V61.0368C61.2631 59.3185 59.8691 57.9257 58.1496 57.9257C56.4301 57.9257 55.0362 59.3185 55.0362 61.0368V85.1848H49.4023V66.3701C49.4023 64.6518 48.0084 63.259 46.2888 63.259C44.5693 63.259 43.1754 64.6518 43.1754 66.3701V85.1848H37.5415V60.4442C37.5415 58.726 36.1476 57.3331 34.4281 57.3331C32.7086 57.3331 31.3146 58.726 31.3146 60.4442V85.1848H25.6807V63.5553C25.6807 61.837 24.2868 60.4442 22.5673 60.4442C20.8478 60.4442 19.4538 61.837 19.4538 63.5553V85.1848H14.1165L14.1165 63.7034C14.1165 61.7397 12.5234 60.1479 10.5582 60.1479C8.59308 60.1479 7 61.7397 7 63.7034L7 92.2959L97.5867 92.2959V63.7034C97.5867 61.7397 95.9937 60.1479 94.0285 60.1479C92.0633 60.1479 90.4703 61.7397 90.4703 63.7034V85.1848H84.9846V58.9627C84.9846 57.2445 83.5907 55.8516 81.8712 55.8516C80.1517 55.8516 78.7577 57.2445 78.7577 58.9627V85.1848H73.1239V41.7776Z" fill="#6237C6"/>
<path fill-rule="evenodd" clip-rule="evenodd" d="M7.48794 0V48.6148C5.96455 48.5838 4.61011 48.4296 3.62527 48.2647C1.93064 47.981 0.326891 49.1248 0.0431898 50.8194C-0.240512 52.514 0.90327 54.1178 2.5979 54.4015C5.16805 54.8318 10.0423 55.2633 14.8036 54.0518C19.6804 52.811 24.7704 49.7174 26.643 42.9812C28.0393 37.9583 30.1015 36.9858 30.9168 36.9586C31.8681 36.9268 34.3241 37.9231 36.8245 43.4335C38.244 46.5617 39.8652 49.2111 41.7768 50.9713C43.7796 52.8155 46.3971 53.9021 49.3062 53.0117C51.9045 52.2164 53.9933 50.0369 55.727 47.3599C57.5146 44.5996 59.2323 40.8295 60.9033 36.0669C62.453 31.6502 64.1783 28.6961 65.8423 26.8877C67.4767 25.1115 68.9171 24.5674 70.0723 24.5456C71.2675 24.5231 72.7691 25.0486 74.5053 26.6103C76.2454 28.1756 78.0458 30.6384 79.7111 34.0358C83.28 41.3167 86.3045 46.3628 89.5292 49.5745C90.3592 50.4011 91.1997 51.1038 92.0578 51.6941C92.3008 51.9017 92.5721 52.077 92.8651 52.2136C95.3282 53.6906 97.9495 54.296 100.889 54.296C102.607 54.296 104 52.9032 104 51.1849C104 49.4667 102.607 48.0738 100.889 48.0738C99.805 48.0738 98.8348 47.9638 97.921 47.6946V0H7.48794ZM90.8099 41.2519V7.11108H14.599V47.6197C17.4481 46.6069 19.6989 44.7294 20.6481 41.3147C22.217 35.671 25.56 30.9118 30.7091 30.7399C35.7221 30.5724 39.7895 34.9095 42.4907 40.8624C43.777 43.6971 44.982 45.4644 45.9916 46.394C46.9086 47.2384 47.3075 47.1163 47.4844 47.0622L47.4851 47.0619C47.9725 46.9128 49.0389 46.2405 50.5044 43.9776C51.9159 41.7981 53.4414 38.5405 55.0321 34.0069C56.7441 29.1272 58.8273 25.3221 61.2636 22.6745C63.7294 19.9947 66.6812 18.3861 69.9553 18.3245C73.1894 18.2637 76.1541 19.7243 78.6665 21.9843C81.175 24.2408 83.4053 27.4354 85.2982 31.2972C87.4058 35.5969 89.1954 38.8293 90.8099 41.2519Z" fill="#FBFFF9"/>
</svg>
