<svg width="703" height="623" viewBox="0 0 703 623" fill="none" xmlns="http://www.w3.org/2000/svg">
<path d="M495.863 282C495.863 270.402 486.454 261 474.847 261C463.24 261 453.831 270.402 453.831 282V575H415.802V412C415.802 400.402 406.393 391 394.786 391C383.18 391 373.771 400.402 373.771 412V575H335.742V448C335.742 436.402 326.333 427 314.726 427C303.119 427 293.71 436.402 293.71 448V575H255.681V408C255.681 396.402 246.272 387 234.665 387C223.058 387 213.649 396.402 213.649 408V575H175.62V429C175.62 417.402 166.211 408 154.605 408C142.998 408 133.589 417.402 133.589 429V575H97.5612L97.5613 430C97.5613 416.745 86.808 406 73.5431 406C60.2782 406 49.5249 416.745 49.5249 430L49.5248 623L660.988 623V430C660.988 416.745 650.235 406 636.97 406C623.705 406 612.952 416.745 612.952 430V575H575.924V398C575.924 386.402 566.515 377 554.908 377C543.301 377 533.892 386.402 533.892 398V575H495.863V282Z" fill="#6237C6"/>
<path fill-rule="evenodd" clip-rule="evenodd" d="M50.5439 0V328.152C40.2609 327.942 31.1184 326.901 24.4707 325.788C13.0319 323.873 2.20653 331.594 0.291532 343.033C-1.62346 354.471 6.0971 365.297 17.5359 367.212C34.8845 370.116 67.786 373.029 99.9248 364.852C132.843 356.476 167.201 335.594 179.841 290.125C189.266 256.22 203.186 249.655 208.689 249.472C215.111 249.257 231.689 255.982 248.567 293.177C258.148 314.293 269.091 332.176 281.995 344.058C295.514 356.506 313.182 363.841 332.818 357.83C350.357 352.462 364.456 337.75 376.159 319.681C388.226 301.049 399.82 275.601 411.1 243.453C421.56 213.64 433.205 193.7 444.437 181.493C455.47 169.504 465.193 165.83 472.99 165.684C481.058 165.532 491.194 169.079 502.913 179.621C514.659 190.186 526.812 206.81 538.053 229.743C562.143 278.889 582.558 312.951 604.325 334.629C609.927 340.209 615.601 344.952 621.393 348.937C623.033 350.338 624.865 351.521 626.842 352.443C643.468 362.413 661.162 366.5 681.003 366.5C692.601 366.5 702.003 357.098 702.003 345.5C702.003 333.902 692.601 324.5 681.003 324.5C673.687 324.5 667.138 323.757 660.97 321.94V0H50.5439ZM612.97 278.451V48H98.5439V321.434C117.775 314.598 132.968 301.925 139.376 278.876C149.966 240.78 172.531 208.656 207.287 207.495C241.125 206.365 268.58 235.64 286.814 275.823C295.496 294.957 303.63 306.886 310.444 313.161C316.635 318.861 319.327 318.037 320.521 317.671L320.526 317.67C323.816 316.663 331.014 312.125 340.906 296.85C350.434 282.139 360.731 260.149 371.468 229.547C383.025 196.61 397.086 170.925 413.531 153.054C430.176 134.965 450.1 124.107 472.2 123.691C494.031 123.28 514.042 133.14 531.001 148.395C547.934 163.626 562.988 185.19 575.766 211.257C589.992 240.281 602.072 262.099 612.97 278.451Z" fill="#0F081E"/>
</svg>
