<svg width="136" height="124" viewBox="0 0 136 124" fill="none" xmlns="http://www.w3.org/2000/svg">
<path d="M13.11 0V110.65H135.18V0H13.11ZM130.41 105.89H17.89V4.77H130.41V105.89ZM4.79 119.01V8.32L0 13.12V123.78H122.05L126.83 119.01H4.79Z" fill="#09D3AC"/>
<g clip-path="url(#clip0)">
<path fill-rule="evenodd" clip-rule="evenodd" d="M63.2171 30.8398C52.3714 28.8647 43.7951 30.9306 40.3766 36.8521C37.8256 41.2693 38.5545 47.1273 42.1442 53.3873C42.2916 53.6426 42.5341 53.8292 42.8187 53.9062C43.1033 53.9833 43.4068 53.9445 43.6629 53.7984C43.9182 53.651 44.1048 53.4085 44.1818 53.1239C44.2588 52.8393 44.2201 52.5358 44.074 52.2797C40.8409 46.6383 40.2119 41.5844 42.3024 37.9622C45.1556 33.0445 52.7916 31.2003 62.819 33.0263C63.109 33.0782 63.4078 33.0132 63.65 32.8455C63.8923 32.6779 64.0583 32.4212 64.112 32.1315C64.1638 31.8415 64.0988 31.5427 63.9312 31.3005C63.7635 31.0582 63.5068 30.8921 63.2171 30.8385V30.8398ZM47.7843 60.9844C52.1704 65.8036 57.8675 70.3245 64.3662 74.0763C80.1128 83.1609 96.862 85.5991 105.106 79.9706C105.349 79.8038 105.516 79.5476 105.571 79.2579C105.626 78.9682 105.564 78.6687 105.398 78.4248C105.231 78.1817 104.975 78.0145 104.685 77.9599C104.396 77.9052 104.096 77.9674 103.852 78.133C96.4638 83.17 80.5525 80.8642 65.4646 72.1608C59.1618 68.5218 53.6436 64.1436 49.4158 59.4982C49.2168 59.2805 48.9397 59.1506 48.6451 59.1367C48.3506 59.1229 48.0625 59.2263 47.844 59.4242C47.6264 59.6232 47.4964 59.9003 47.4826 60.1949C47.4687 60.4894 47.5721 60.7775 47.7701 60.996L47.7843 60.9844ZM102.484 59.6447C109.586 51.2539 112.065 42.8164 108.654 36.9105C106.145 32.5634 100.839 30.2679 93.7871 30.1771C93.4924 30.174 93.2084 30.2876 92.9973 30.4932C92.7861 30.6988 92.6649 30.9796 92.6601 31.2743C92.657 31.569 92.7706 31.8529 92.9762 32.0641C93.1818 32.2752 93.4626 32.3965 93.7572 32.4012C100.112 32.4842 104.67 34.4607 106.726 38.0232C109.56 42.9306 107.348 50.455 100.784 58.2104C100.594 58.4358 100.501 58.7273 100.525 59.0211C100.549 59.3149 100.689 59.5871 100.913 59.7783C101.139 59.9683 101.43 60.0613 101.724 60.037C102.018 60.0127 102.29 59.873 102.481 59.6486L102.484 59.6447ZM84.2317 31.2081C77.8122 32.5828 70.975 35.2738 64.4116 39.0633C48.1695 48.4397 37.574 62.2812 39.0434 72.2931C39.087 72.5846 39.2442 72.847 39.4806 73.0229C39.7171 73.1988 40.0135 73.274 40.3052 73.2321C40.5967 73.1885 40.8591 73.0313 41.035 72.7948C41.211 72.5584 41.2862 72.2619 41.2442 71.9702C39.9382 63.0685 49.9812 49.9622 65.5217 40.9749C71.8764 37.2982 78.5073 34.6941 84.696 33.3674C84.9839 33.3049 85.2355 33.131 85.3956 32.8836C85.5557 32.6362 85.6115 32.3355 85.5506 32.0472C85.4881 31.7592 85.3142 31.5077 85.0668 31.3476C84.8194 31.1874 84.5187 31.1317 84.2304 31.1926L84.2317 31.2081Z" fill="#09D3AC"/>
<path fill-rule="evenodd" clip-rule="evenodd" d="M57.9195 79.2469C61.6324 89.6155 67.707 96 74.5389 96C79.5215 96 84.1306 92.6022 87.7242 86.6236C87.8755 86.3706 87.9204 86.068 87.8492 85.782C87.778 85.4959 87.5964 85.2497 87.3443 85.0971C87.0913 84.9459 86.7887 84.901 86.5027 84.9722C86.2166 85.0434 85.9704 85.225 85.8178 85.4771C82.5757 90.8501 78.6202 93.7732 74.5389 93.7732C68.8651 93.7732 63.4467 88.067 60.0139 78.4961C59.9137 78.2188 59.7078 77.9925 59.4412 77.8666C59.1746 77.7407 58.869 77.7255 58.5912 77.8243C58.314 77.9245 58.0876 78.1304 57.9618 78.397C57.8359 78.6636 57.8207 78.9692 57.9195 79.2469ZM91.8366 77.2186C93.7586 71.0753 94.7909 63.9905 94.7909 56.6048C94.7909 38.1788 88.3416 22.2947 79.1558 18.2173C78.886 18.0984 78.5802 18.0911 78.3051 18.1971C78.03 18.303 77.808 18.5136 77.6877 18.7827C77.5688 19.0525 77.5616 19.3583 77.6675 19.6334C77.7735 19.9085 77.984 20.1305 78.2532 20.2508C86.4468 23.8872 92.5655 38.9634 92.5655 56.6061C92.5655 63.77 91.5669 70.6331 89.7124 76.5559C89.6249 76.8375 89.6525 77.1421 89.7891 77.4034C89.9257 77.6646 90.1601 77.8612 90.4412 77.9501C90.7227 78.0375 91.0274 78.0099 91.2887 77.8733C91.5499 77.7367 91.7465 77.5023 91.8353 77.2212L91.8366 77.2186ZM112.784 76.1293C112.784 73.1892 110.4 70.8056 107.46 70.8056C104.52 70.8056 102.123 73.175 102.123 76.1293C102.123 79.0835 104.507 81.4529 107.447 81.4529C110.387 81.4529 112.771 79.0693 112.771 76.1293H112.784ZM110.56 76.1293C110.559 76.9509 110.233 77.7387 109.652 78.3197C109.071 78.9006 108.283 79.2271 107.461 79.2275C106.64 79.2271 105.852 78.9006 105.271 78.3197C104.69 77.7387 104.363 76.9509 104.363 76.1293C104.363 75.3077 104.69 74.5198 105.271 73.9389C105.852 73.3579 106.64 73.0314 107.461 73.031C108.283 73.0314 109.071 73.3579 109.652 73.9389C110.233 74.5198 110.559 75.3077 110.56 76.1293V76.1293Z" fill="#09D3AC"/>
<path fill-rule="evenodd" clip-rule="evenodd" d="M41.5386 81.453C44.4786 81.453 46.8623 79.0693 46.8623 76.1293C46.8623 73.1893 44.4786 70.8056 41.5386 70.8056C40.1267 70.8058 38.7726 71.3668 37.7744 72.3653C36.7761 73.3638 36.2154 74.718 36.2156 76.1299C36.2157 77.5419 36.7768 78.8959 37.7753 79.8941C38.7738 80.8924 40.128 81.4531 41.5399 81.453H41.5386ZM41.5386 79.2288C40.717 79.2285 39.9292 78.9019 39.3482 78.321C38.7672 77.74 38.4407 76.9522 38.4404 76.1306C38.4407 75.309 38.7672 74.5211 39.3482 73.9402C39.9292 73.3592 40.717 73.0327 41.5386 73.0323C42.3602 73.0327 43.148 73.3592 43.729 73.9402C44.31 74.5211 44.6365 75.309 44.6368 76.1306C44.6365 76.9522 44.31 77.74 43.729 78.321C43.148 78.9019 42.3602 79.2285 41.5386 79.2288V79.2288ZM74.5389 23.6344C77.4789 23.6344 79.8626 21.2507 79.8626 18.3107C79.8626 15.3707 77.4776 13 74.5389 13C71.6002 13 69.2152 15.3837 69.2152 18.3237C69.2152 21.2637 71.5989 23.6344 74.5389 23.6344ZM74.5389 21.4102C73.7173 21.4099 72.9294 21.0834 72.3485 20.5024C71.7675 19.9214 71.441 19.1336 71.4406 18.312C71.441 17.4904 71.7675 16.7026 72.3485 16.1216C72.9294 15.5406 73.7173 15.2141 74.5389 15.2138C75.3605 15.2141 76.1483 15.5406 76.7293 16.1216C77.3102 16.7026 77.6368 17.4904 77.6371 18.312C77.6368 19.1336 77.3102 19.9214 76.7293 20.5024C76.1483 21.0834 75.3605 21.4099 74.5389 21.4102V21.4102ZM75.3507 60.3684C74.855 60.4788 74.3423 60.49 73.8422 60.4015C73.3421 60.313 72.8644 60.1264 72.4366 59.8526C72.0089 59.5787 71.6396 59.223 71.3498 58.8058C71.0601 58.3887 70.8558 57.9183 70.7486 57.4219C70.6413 56.9255 70.6334 56.4127 70.7251 55.9132C70.8168 55.4136 71.0064 54.9372 71.283 54.5112C71.5596 54.0852 71.9177 53.7181 72.3367 53.4311C72.7557 53.1441 73.2273 52.9427 73.7244 52.8387C74.2202 52.7283 74.7329 52.717 75.233 52.8056C75.7331 52.8941 76.2108 53.0806 76.6385 53.3545C77.0663 53.6283 77.4356 53.9841 77.7253 54.4012C78.015 54.8184 78.2194 55.2887 78.3266 55.7852C78.4338 56.2816 78.4418 56.7944 78.3501 57.2939C78.2584 57.7934 78.0688 58.2699 77.7922 58.6959C77.5156 59.1219 77.1575 59.4889 76.7385 59.776C76.3195 60.063 75.8478 60.2643 75.3507 60.3684V60.3684Z" fill="#09D3AC"/>
</g>
<defs>
<clipPath id="clip0">
<rect width="83" height="83" fill="white" transform="translate(33 13)"/>
</clipPath>
</defs>
</svg>
