<svg width="100" height="114" viewBox="0 0 100 114" fill="none" xmlns="http://www.w3.org/2000/svg">
<path d="M53.4884 63.9474C53.4884 63.9663 53.4884 63.9851 53.4881 64.004C53.4881 64.0042 53.4881 64.0042 53.4881 64.0044C53.4881 64.0054 53.4881 64.0065 53.4881 64.0077C53.4814 64.4605 53.3879 64.8926 53.2242 65.2879C53.0598 65.6858 52.8184 66.0595 52.5005 66.3863C52.5002 66.3865 52.5 66.3867 52.4995 66.3872C52.4988 66.3879 52.4984 66.3884 52.4977 66.3891C52.4863 66.4007 52.4749 66.4123 52.4633 66.424L43.1647 75.7226C42.4833 76.4037 41.5905 76.7442 40.6977 76.7442C39.8049 76.7442 38.9121 76.4037 38.2312 75.7223C36.8688 74.36 36.8688 72.1514 38.2312 70.7891L46.5116 62.5086V31.3954C46.5116 29.4688 48.0735 27.907 50 27.907C51.9265 27.907 53.4884 29.4688 53.4884 31.3954V63.9474ZM90.6977 110.465C90.6977 112.392 89.1358 113.953 87.2093 113.953H12.7907C10.8642 113.953 9.30233 112.392 9.30233 110.465C9.30233 108.539 10.8642 106.977 12.7907 106.977H24.4844C20.9412 104.867 17.6367 102.301 14.6447 99.3089C5.20093 89.8651 0 77.3091 0 63.9535C0 50.5979 5.20093 38.0419 14.6447 28.5981C17.9435 25.2993 21.6216 22.5184 25.5814 20.2958V10.4651C25.5814 4.69465 30.276 0 36.0465 0H63.9535C69.724 0 74.4186 4.69465 74.4186 10.4651V20.2958C78.3781 22.5184 82.0565 25.2993 85.3554 28.5981C94.7991 38.0419 100 50.5979 100 63.9535C100 77.3091 94.7991 89.8651 85.3554 99.3089C82.3633 102.301 79.0591 104.867 75.5156 106.977H87.2093C89.1358 106.977 90.6977 108.539 90.6977 110.465ZM32.5581 17.0658C38.0644 15.0209 43.9507 13.9535 50 13.9535C56.0493 13.9535 61.9356 15.0209 67.4419 17.0658V10.4651C67.4419 8.54163 65.877 6.97674 63.9535 6.97674H36.0465C34.123 6.97674 32.5581 8.54163 32.5581 10.4651V17.0658ZM53.4884 98.3316V106.837C74.4356 105.148 91.1944 88.3891 92.8833 67.4419H84.3781C82.4516 67.4419 80.8898 65.88 80.8898 63.9535C80.8898 62.027 82.4516 60.4651 84.3781 60.4651H92.8833C91.1016 38.3672 72.5488 20.9302 50 20.9302C27.4512 20.9302 8.89837 38.3672 7.11674 60.4651H15.6219C17.5484 60.4651 19.1102 62.027 19.1102 63.9535C19.1102 65.88 17.5484 67.4419 15.6219 67.4419H7.11674C8.80558 88.3891 25.5644 105.148 46.5116 106.837V98.3316C46.5116 96.4051 48.0735 94.8433 50 94.8433C51.9265 94.8433 53.4884 96.4051 53.4884 98.3316Z" fill="#0F081E"/>
</svg>
