<svg width="100" height="99" viewBox="0 0 100 99" fill="none" xmlns="http://www.w3.org/2000/svg">
<path d="M61.4542 80.9397H6.97932V20.7983H89.8001V65.6184L96.7794 72.5978V5.81606C96.7794 2.60907 94.1704 0 90.9636 0H5.81581C2.60907 0 0 2.60907 0 5.81606V82.1032C0 85.31 2.60907 87.9191 5.81581 87.9191H64.7712C61.5364 83.3206 61.4542 80.9397 61.4542 80.9397ZM83.4138 9.76607C83.4138 8.58011 84.3752 7.6187 85.5611 7.6187H87.7083C88.8945 7.6187 89.8556 8.58011 89.8556 9.76607V12.1999C89.8556 13.3859 88.8942 14.3473 87.7083 14.3473H85.5611C84.3747 14.3473 83.4138 13.3859 83.4138 12.1999V9.76607ZM73.4283 9.76607C73.4283 8.58011 74.3897 7.6187 75.5754 7.6187H77.7231C78.9095 7.6187 79.8704 8.58011 79.8704 9.76607V12.1999C79.8704 13.3859 78.909 14.3473 77.7231 14.3473H75.5754C74.3895 14.3473 73.4283 13.3859 73.4283 12.1999V9.76607ZM63.4426 9.76607C63.4426 8.58011 64.4043 7.6187 65.59 7.6187H67.7374C68.9236 7.6187 69.885 8.58011 69.885 9.76607V12.1999C69.885 13.3859 68.9236 14.3473 67.7374 14.3473H65.59C64.4043 14.3473 63.4426 13.3859 63.4426 12.1999V9.76607Z" fill="#0F081E"/>
<path d="M96.8823 78.8579L86.7242 68.6995C84.4312 66.4067 81.3454 65.3814 78.341 65.6181C78.5774 62.6137 77.5523 59.5281 75.2596 57.2349L65.1014 47.0767C60.9439 42.9197 54.1805 42.9199 50.0232 47.0767L48.3726 48.7271C44.2156 52.8839 44.2156 59.6478 48.3726 63.8051L58.531 73.963C60.8242 76.2562 63.9098 77.281 66.9139 77.0449C66.6775 80.049 67.7029 83.1349 69.9958 85.4281L80.154 95.586C84.3108 99.743 91.0747 99.743 95.2317 95.586L96.8821 93.9356C101.039 89.7786 101.039 83.0147 96.8823 78.8579ZM64.7189 67.0123L68.9293 71.2229C66.7856 72.4994 63.9648 72.2166 62.122 70.3743L51.9636 60.2159C49.7861 58.0389 49.7861 54.4953 51.9636 52.3178L53.6139 50.6674C55.7912 48.49 59.3345 48.49 61.5115 50.6674L71.6699 60.8256C73.5132 62.6687 73.7953 65.489 72.5185 67.6332L68.3082 63.4226C67.3164 62.4311 65.7097 62.4311 64.7182 63.4226C63.7272 64.4136 63.7272 66.0208 64.7189 67.0123ZM93.2924 90.3456L91.642 91.996C89.4645 94.1735 85.9217 94.1735 83.7442 91.9963L73.586 81.8381C71.7432 79.995 71.4604 77.1747 72.7372 75.0308L76.9477 79.2411C77.9392 80.2329 79.5459 80.2329 80.5377 79.2411C81.529 78.2496 81.529 76.6427 80.5377 75.6512L76.3271 71.4406C78.471 70.1638 81.2916 70.4468 83.1352 72.2894L93.2931 82.4476C95.4698 84.6253 95.4698 88.1682 93.2924 90.3456Z" fill="#0F081E"/>
</svg>
