<svg width="100" height="87" viewBox="0 0 100 87" fill="none" xmlns="http://www.w3.org/2000/svg">
<path d="M65.4125 25.6L87.4876 9.48755L89.3937 12.2033L95.0688 0L81.6625 1.18755L83.8969 4.37204L65.3188 17.9282L40.0843 0.418776L0 20.6908V27.6251L39.6031 7.69388L65.4125 25.6Z" fill="#FBFFF9"/>
<path d="M20.5875 22.8064L0 33.1815V86.6127H20.5875V22.8064ZM14.3376 80.3627H6.25V37.0315L14.3376 32.9566V80.3627Z" fill="#FBFFF9"/>
<path d="M26.4717 19.6156V86.6125H47.0593V19.6156L38.8686 13.5532L26.4717 19.6156ZM40.8093 80.3625H32.7217V23.5187L38.2029 20.8374L40.8093 22.7687V80.3625Z" fill="#FBFFF9"/>
<path d="M52.9408 23.222V86.6127H73.5284V25.9969L65.3314 32.0094L52.9408 23.222ZM67.2784 38.3345V80.3627H59.1908V35.3188L65.3939 39.7188L67.2784 38.3345Z" fill="#FBFFF9"/>
<path d="M79.4125 86.6127H100V6.85638L79.4125 22.8064V86.6127ZM85.6625 25.8721L93.7501 19.6033V80.3627H85.6625V25.8721Z" fill="#FBFFF9"/>
</svg>
