<svg width="100" height="110" viewBox="0 0 100 110" fill="none" xmlns="http://www.w3.org/2000/svg">
<path d="M88.3988 51.0298H88.1697V21.0254C88.1697 19.1335 86.6353 17.5997 84.7437 17.5997H68.1713V3.42786C68.1713 2.35544 67.6683 1.34539 66.8139 0.698169C65.9573 0.0487866 64.8478 -0.165204 63.8177 0.130616L2.98413 17.2434C2.26836 17.4438 1.67487 17.8656 1.24287 18.406C0.490357 19.0347 0 19.9684 0 21.0251V105.599C0 107.491 1.53622 109.025 3.4257 109.025H84.7443C86.6359 109.025 88.1703 107.491 88.1703 105.599V75.5943H88.3997C94.7963 75.5943 100 70.3903 100 63.994V62.6307C99.9997 56.2338 94.7957 51.0298 88.3988 51.0298ZM61.3205 17.5997H27.0162L61.3202 7.951V17.5997H61.3205ZM81.318 102.173H6.85202V24.4511H81.3183V51.0295H65.2347C58.8363 51.0295 53.6326 56.2338 53.6326 62.6301V63.9934C53.6326 70.3903 58.8369 75.5937 65.2347 75.5937H81.3183V102.173H81.318ZM93.1486 63.9937C93.1486 66.6116 91.0167 68.7429 88.3988 68.7429H65.2341C62.6143 68.7429 60.4834 66.6116 60.4834 63.9937V62.6304C60.4834 60.0122 62.6137 57.8812 65.2341 57.8812H88.3988C91.0167 57.8812 93.1486 60.0122 93.1486 62.6304V63.9937Z" fill="#0F081E"/>
</svg>
