<svg width="100" height="100" viewBox="0 0 100 100" fill="none" xmlns="http://www.w3.org/2000/svg">
<path d="M94.8814 39.5026L87.8624 38.3119C87.1313 35.9513 86.1913 33.6743 85.0423 31.5018L89.1785 25.7153C90.9332 23.2503 90.6617 19.8871 88.51 17.7563L82.2849 11.5312C81.115 10.3613 79.5692 9.71375 77.9189 9.71375C76.6237 9.71375 75.3912 10.1107 74.3467 10.8627L68.5394 14.9989C66.2833 13.8081 63.9227 12.8263 61.4786 12.0952L60.3088 5.15978C59.8075 2.17254 57.238 0 54.209 0H45.4144C42.3854 0 39.8159 2.17254 39.3146 5.15978L38.103 12.2623C35.7633 12.9934 33.4863 13.9544 31.3138 15.1242L25.5691 10.988C24.5246 10.236 23.2712 9.83909 21.9761 9.83909C20.3258 9.83909 18.759 10.4867 17.6101 11.6565L11.364 17.8817C9.23329 20.0124 8.94083 23.3757 10.6956 25.8407L14.8735 31.7107C13.7246 33.9041 12.8054 36.1811 12.0952 38.5417L5.15978 39.7115C2.17254 40.2128 0 42.7823 0 45.8113V54.6059C0 57.6349 2.17254 60.2044 5.15978 60.7057L12.2623 61.9173C12.9934 64.257 13.9544 66.534 15.1242 68.7065L11.0089 74.4303C9.25418 76.8953 9.52574 80.2585 11.6774 82.3893L17.9025 88.6145C19.0724 89.7843 20.6182 90.4319 22.2685 90.4319C23.5637 90.4319 24.7962 90.035 25.8407 89.2829L31.7107 85.105C33.8206 86.2121 36.0349 87.1104 38.3119 87.8207L39.4817 94.8396C39.9831 97.8269 42.5525 99.9994 45.5815 99.9994H54.397C57.426 99.9994 59.9955 97.8269 60.4968 94.8396L61.6875 87.8207C64.0481 87.0895 66.3251 86.1495 68.4976 85.0005L74.2841 89.1367C75.3286 89.8887 76.582 90.2856 77.8771 90.2856C79.5274 90.2856 81.0733 89.6381 82.2431 88.4682L88.4682 82.2431C90.599 80.1123 90.8915 76.7491 89.1367 74.2841L85.0005 68.4767C86.1495 66.2833 87.1104 64.0063 87.8207 61.6666L94.8396 60.4968C97.8269 59.9955 99.9994 57.426 99.9994 54.397V45.6024C100.041 42.5734 97.8686 40.0039 94.8814 39.5026ZM94.4009 54.397C94.4009 54.6686 94.2129 54.8984 93.9414 54.9401L85.1677 56.4024C84.0605 56.5904 83.1831 57.4051 82.9116 58.4705C82.1177 61.5413 80.9061 64.4868 79.2767 67.2233C78.7127 68.1842 78.7545 69.375 79.4021 70.2941L84.5619 77.5638C84.7081 77.7727 84.6872 78.086 84.4992 78.274L78.274 84.4992C78.1278 84.6454 77.9816 84.6663 77.8771 84.6663C77.7518 84.6663 77.6473 84.6245 77.5638 84.5618L70.315 79.4021C69.4168 78.7545 68.2051 78.7127 67.2442 79.2767C64.5077 80.9061 61.5622 82.1177 58.4914 82.9116C57.4051 83.1831 56.5904 84.0814 56.4233 85.1676L54.9401 93.9414C54.8984 94.2129 54.6686 94.4009 54.397 94.4009H45.6024C45.3308 94.4009 45.101 94.2129 45.0593 93.9414L43.597 85.1676C43.409 84.0605 42.5943 83.1831 41.5289 82.9116C38.5417 82.1386 35.6589 80.9479 32.9641 79.4021C32.5254 79.1514 32.024 79.0261 31.5436 79.0261C30.9796 79.0261 30.3946 79.1932 29.9142 79.5483L22.6027 84.7499C22.4983 84.8125 22.3938 84.8543 22.2894 84.8543C22.2058 84.8543 22.0387 84.8334 21.8925 84.6872L15.6673 78.462C15.4793 78.274 15.4584 77.9816 15.6047 77.7518L20.7436 70.5448C21.3911 69.6256 21.4329 68.414 20.8689 67.4531C19.2395 64.7374 17.9861 61.792 17.1923 58.7212C16.8998 57.6558 16.0225 56.8411 14.9362 56.6531L6.09982 55.149C5.82825 55.1073 5.64024 54.8775 5.64024 54.6059V45.8113C5.64024 45.5397 5.82825 45.3099 6.09982 45.2682L14.8109 43.8059C15.918 43.6179 16.8163 42.8032 17.0878 41.7169C17.8608 38.6461 19.0515 35.6797 20.66 32.9432C21.224 31.9823 21.1614 30.7915 20.5138 29.8933L15.3122 22.5819C15.166 22.373 15.1869 22.0596 15.3749 21.8716L21.6 15.6464C21.7463 15.5002 21.8925 15.4793 21.9969 15.4793C22.1223 15.4793 22.2267 15.5211 22.3103 15.5838L29.5173 20.7227C30.4364 21.3702 31.648 21.412 32.609 20.848C35.3246 19.2186 38.2701 17.9652 41.3409 17.1714C42.4063 16.8789 43.221 16.0016 43.409 14.9153L44.913 6.07893C44.9548 5.80736 45.1846 5.61935 45.4562 5.61935H54.2508C54.5223 5.61935 54.7521 5.80736 54.7939 6.07893L56.2562 14.79C56.4442 15.8971 57.2589 16.7954 58.3452 17.067C61.4995 17.8608 64.5077 19.0933 67.3069 20.7436C68.2678 21.3076 69.4585 21.2658 70.3777 20.6182L77.5847 15.4376C77.6891 15.3749 77.7936 15.3331 77.898 15.3331C77.9816 15.3331 78.1487 15.354 78.2949 15.5002L84.5201 21.7254C84.7081 21.9134 84.729 22.2058 84.5827 22.4356L79.423 29.6844C78.7754 30.5826 78.7336 31.7943 79.2976 32.7552C80.927 35.4917 82.1386 38.4372 82.9324 41.508C83.204 42.5943 84.1023 43.409 85.1885 43.5761L93.9623 45.0593C94.2338 45.101 94.4218 45.3308 94.4218 45.6024V54.397H94.4009Z" fill="#FBFFF9"/>
<path d="M50.0101 28.41C38.1029 28.41 28.4309 38.082 28.4309 49.9892C28.4309 61.8964 38.1029 71.5683 50.0101 71.5683C61.9173 71.5683 71.5892 61.8964 71.5892 49.9892C71.5892 38.082 61.9173 28.41 50.0101 28.41ZM50.0101 65.9281C41.2155 65.9281 34.0712 58.7838 34.0712 49.9892C34.0712 41.1946 41.2155 34.0503 50.0101 34.0503C58.8047 34.0503 65.949 41.1946 65.949 49.9892C65.949 58.7838 58.8047 65.9281 50.0101 65.9281Z" fill="#FBFFF9"/>
</svg>
