<svg width="1024" height="1024" viewBox="0 0 1024 1024" fill="none" xmlns="http://www.w3.org/2000/svg">
<g filter="url(#filter0_d_1510_998)">
<path fill-rule="evenodd" clip-rule="evenodd" d="M924 354.627C924 344.845 924.004 335.062 923.944 325.279C923.895 317.038 923.8 308.799 923.576 300.562C923.092 282.609 922.033 264.502 918.84 246.749C915.602 228.741 910.314 211.98 901.981 195.617C893.789 179.534 883.088 164.817 870.32 152.058C857.555 139.299 842.834 128.605 826.746 120.418C810.366 112.083 793.587 106.797 775.558 103.56C757.803 100.372 739.691 99.315 721.738 98.83C713.495 98.607 705.253 98.513 697.008 98.462C687.22 98.402 677.432 98.407 667.644 98.407L553.997 98H468.997L357.361 98.407C347.554 98.407 337.747 98.402 327.94 98.462C319.678 98.513 311.42 98.607 303.161 98.83C285.167 99.315 267.014 100.373 249.217 103.565C231.164 106.801 214.36 112.085 197.958 120.414C181.835 128.602 167.083 139.297 154.291 152.058C141.501 164.816 130.78 179.53 122.573 195.61C114.217 211.981 108.919 228.752 105.673 246.77C102.477 264.516 101.418 282.617 100.931 300.562C100.709 308.8 100.613 317.039 100.563 325.279C100.503 335.063 100 347.216 100 356.999L100.003 467.089L100 552.998L100.508 665.427C100.508 675.223 100.504 685.019 100.563 694.815C100.613 703.067 100.709 711.317 100.932 719.566C101.418 737.542 102.479 755.675 105.678 773.452C108.923 791.484 114.22 808.269 122.569 824.653C130.777 840.759 141.5 855.495 154.291 868.272C167.082 881.049 181.83 891.757 197.95 899.956C214.362 908.302 231.174 913.595 249.238 916.836C267.027 920.029 285.174 921.088 303.161 921.573C311.42 921.796 319.679 921.891 327.941 921.941C337.748 922.001 347.554 921.997 357.361 921.997L470.006 922H555.217L667.644 921.996C677.432 921.996 687.22 922.001 697.008 921.941C705.253 921.891 713.495 921.796 721.738 921.573C739.698 921.087 757.816 920.027 775.579 916.832C793.597 913.591 810.368 908.3 826.739 899.959C842.831 891.761 857.554 881.051 870.32 868.272C883.086 855.497 893.786 840.763 901.978 824.66C910.316 808.268 915.604 791.475 918.844 773.431C922.034 755.661 923.092 737.535 923.577 719.566C923.8 711.316 923.895 703.066 923.944 694.815C924.005 685.019 924 675.223 924 665.427C924 665.427 923.994 554.983 923.994 552.998V466.999C923.994 465.533 924 354.627 924 354.627Z" fill="url(#paint0_linear_1510_998)"/>
</g>
<mask id="mask0_1510_998" style="mask-type:luminance" maskUnits="userSpaceOnUse" x="100" y="98" width="824" height="824">
<path fill-rule="evenodd" clip-rule="evenodd" d="M924 354.627C924 344.845 924.004 335.062 923.944 325.279C923.895 317.038 923.8 308.799 923.576 300.562C923.092 282.609 922.033 264.502 918.84 246.749C915.602 228.741 910.314 211.98 901.981 195.617C893.789 179.534 883.088 164.817 870.32 152.058C857.555 139.299 842.834 128.605 826.746 120.418C810.366 112.083 793.587 106.797 775.558 103.56C757.803 100.372 739.691 99.315 721.738 98.83C713.495 98.607 705.253 98.513 697.008 98.462C687.22 98.402 677.432 98.407 667.644 98.407L553.997 98H468.997L357.361 98.407C347.554 98.407 337.747 98.402 327.94 98.462C319.678 98.513 311.42 98.607 303.161 98.83C285.167 99.315 267.014 100.373 249.217 103.565C231.164 106.801 214.36 112.085 197.958 120.414C181.835 128.602 167.083 139.297 154.291 152.058C141.501 164.816 130.78 179.53 122.573 195.61C114.217 211.981 108.919 228.752 105.673 246.77C102.477 264.516 101.418 282.617 100.931 300.562C100.709 308.8 100.613 317.039 100.563 325.279C100.503 335.063 100 347.216 100 356.999L100.003 467.089L100 552.998L100.508 665.427C100.508 675.223 100.504 685.019 100.563 694.815C100.613 703.067 100.709 711.317 100.932 719.566C101.418 737.542 102.479 755.675 105.678 773.452C108.923 791.484 114.22 808.269 122.569 824.653C130.777 840.759 141.5 855.495 154.291 868.272C167.082 881.049 181.83 891.757 197.95 899.956C214.362 908.302 231.174 913.595 249.238 916.836C267.027 920.029 285.174 921.088 303.161 921.573C311.42 921.796 319.679 921.891 327.941 921.941C337.748 922.001 347.554 921.997 357.361 921.997L470.006 922H555.217L667.644 921.996C677.432 921.996 687.22 922.001 697.008 921.941C705.253 921.891 713.495 921.796 721.738 921.573C739.698 921.087 757.816 920.027 775.579 916.832C793.597 913.591 810.368 908.3 826.739 899.959C842.831 891.761 857.554 881.051 870.32 868.272C883.086 855.497 893.786 840.763 901.978 824.66C910.316 808.268 915.604 791.475 918.844 773.431C922.034 755.661 923.092 737.535 923.577 719.566C923.8 711.316 923.895 703.066 923.944 694.815C924.005 685.019 924 675.223 924 665.427C924 665.427 923.994 554.983 923.994 552.998V466.999C923.994 465.533 924 354.627 924 354.627Z" fill="white"/>
</mask>
<g mask="url(#mask0_1510_998)">
<rect x="42" y="36" width="914" height="914" fill="url(#paint1_linear_1510_998)"/>
<g filter="url(#filter1_b_1510_998)">
<rect x="100" y="98" width="824" height="824" rx="126" fill="#191924" fill-opacity="0.01"/>
</g>
<path d="M649.554 481.59C649.554 470.42 640.492 461.365 629.314 461.365C618.136 461.365 609.074 470.42 609.074 481.59V763.772H572.449V606.79C572.449 595.621 563.387 586.566 552.209 586.566C541.031 586.566 531.969 595.621 531.969 606.79V763.772H495.344V641.461C495.344 630.291 486.282 621.236 475.104 621.236C463.926 621.236 454.864 630.291 454.864 641.461V763.772H418.239V602.938C418.239 591.768 409.177 582.713 397.999 582.713C386.82 582.713 377.759 591.768 377.759 602.938V763.772H341.134V623.163C341.134 611.993 332.072 602.938 320.894 602.938C309.715 602.938 300.653 611.993 300.653 623.163V763.772H265.956L265.956 624.126C265.956 611.36 255.6 601.012 242.825 601.012C230.049 601.012 219.693 611.36 219.693 624.126L219.693 810L808.584 810V624.126C808.584 611.36 798.227 601.012 785.452 601.012C772.677 601.012 762.321 611.36 762.321 624.126V763.772H726.659V593.307C726.659 582.137 717.598 573.082 706.419 573.082C695.241 573.082 686.179 582.137 686.179 593.307V763.772H649.554V481.59Z" fill="#6237C6"/>
<path fill-rule="evenodd" clip-rule="evenodd" d="M220.678 210V526.037C210.775 525.836 201.97 524.833 195.567 523.761C184.551 521.917 174.125 529.352 172.281 540.369C170.436 551.385 177.872 561.811 188.889 563.655C205.597 566.452 237.284 569.258 268.236 561.382C299.94 553.316 333.029 533.204 345.202 489.414C354.28 456.761 367.686 450.439 372.986 450.262C379.17 450.055 395.136 456.532 411.391 492.354C420.619 512.69 431.158 529.913 443.585 541.356C456.605 553.345 473.621 560.409 492.533 554.62C509.424 549.45 523.003 535.282 534.273 517.879C545.894 499.935 557.061 475.426 567.924 444.465C577.998 415.753 589.214 396.549 600.031 384.793C610.657 373.246 620.02 369.708 627.53 369.567C635.3 369.421 645.062 372.837 656.348 382.989C667.66 393.165 679.365 409.175 690.191 431.261C713.392 478.593 733.054 511.397 754.017 532.276C759.412 537.65 764.877 542.217 770.455 546.055C772.034 547.404 773.798 548.544 775.703 549.432C791.715 559.034 808.756 562.97 827.865 562.97C839.034 562.97 848.089 553.915 848.089 542.745C848.089 531.575 839.034 522.52 827.865 522.52C820.818 522.52 814.511 521.805 808.571 520.055V210H220.678ZM762.343 478.172V256.228H266.906V519.568C285.427 512.984 300.06 500.778 306.231 478.58C316.43 441.891 338.162 410.953 371.636 409.835C404.224 408.747 430.666 436.941 448.226 475.64C456.588 494.068 464.422 505.557 470.985 511.6C476.946 517.089 479.539 516.296 480.689 515.943L480.694 515.942C483.863 514.972 490.795 510.602 500.322 495.891C509.498 481.723 519.415 460.545 529.756 431.073C540.886 399.352 554.428 374.615 570.266 357.403C586.296 339.983 605.485 329.525 626.769 329.125C647.794 328.729 667.067 338.225 683.4 352.917C699.707 367.586 714.206 388.353 726.512 413.458C740.213 441.41 751.846 462.423 762.343 478.172Z" fill="#F6F6F9"/>
</g>
<path fill-rule="evenodd" clip-rule="evenodd" d="M906 361.415C906 352.061 906.004 342.705 905.946 333.35C905.9 325.469 905.809 317.59 905.594 309.712C905.132 292.544 904.119 275.228 901.065 258.251C897.969 241.029 892.912 225 884.943 209.352C877.109 193.972 866.876 179.898 854.666 167.696C842.458 155.495 828.381 145.268 812.995 137.438C797.33 129.468 781.285 124.413 764.043 121.317C747.064 118.268 729.744 117.258 712.575 116.794C704.692 116.58 696.809 116.491 688.925 116.442C679.564 116.384 670.204 116.389 660.844 116.389L552.162 116H470.876L364.117 116.389C354.739 116.389 345.36 116.384 335.982 116.442C328.081 116.491 320.184 116.58 312.286 116.794C295.077 117.258 277.717 118.269 260.698 121.322C243.434 124.416 227.364 129.47 211.679 137.435C196.26 145.265 182.152 155.493 169.919 167.696C157.688 179.897 147.435 193.968 139.587 209.345C131.596 225.001 126.529 241.039 123.425 258.271C120.369 275.241 119.356 292.552 118.89 309.712C118.678 317.591 118.586 325.47 118.538 333.35C118.481 342.706 118 354.328 118 363.684L118.003 468.963L118 551.12L118.486 658.636C118.486 668.004 118.482 677.372 118.538 686.74C118.586 694.632 118.678 702.521 118.891 710.41C119.356 727.601 120.371 744.941 123.43 761.942C126.533 779.187 131.599 795.238 139.583 810.906C147.432 826.309 157.687 840.401 169.919 852.62C182.151 864.838 196.255 875.078 211.671 882.919C227.366 890.901 243.443 895.962 260.718 899.062C277.729 902.115 295.084 903.128 312.286 903.592C320.184 903.805 328.082 903.896 335.983 903.944C345.361 904.001 354.739 903.997 364.117 903.997L471.841 904H553.329L660.844 903.996C670.204 903.996 679.564 904.001 688.925 903.944C696.809 903.896 704.692 903.805 712.575 903.592C729.75 903.127 747.077 902.113 764.063 899.058C781.294 895.958 797.332 890.899 812.988 882.922C828.377 875.082 842.457 864.84 854.666 852.62C866.874 840.403 877.106 826.312 884.94 810.913C892.914 795.237 897.971 779.178 901.069 761.921C904.12 744.928 905.132 727.594 905.595 710.41C905.809 702.52 905.9 694.631 905.946 686.74C906.005 677.372 906 668.004 906 658.636C906 658.636 905.994 553.018 905.994 551.12V468.877C905.994 467.475 906 361.415 906 361.415Z" fill="url(#paint2_linear_1510_998)"/>
<mask id="mask1_1510_998" style="mask-type:luminance" maskUnits="userSpaceOnUse" x="118" y="116" width="788" height="788">
<path fill-rule="evenodd" clip-rule="evenodd" d="M906 361.415C906 352.061 906.004 342.705 905.946 333.35C905.9 325.469 905.809 317.59 905.594 309.712C905.132 292.544 904.119 275.228 901.065 258.251C897.969 241.029 892.912 225 884.943 209.352C877.109 193.972 866.876 179.898 854.666 167.696C842.458 155.495 828.381 145.268 812.995 137.438C797.33 129.468 781.285 124.413 764.043 121.317C747.064 118.268 729.744 117.258 712.575 116.794C704.692 116.58 696.809 116.491 688.925 116.442C679.564 116.384 670.204 116.389 660.844 116.389L552.162 116H470.876L364.117 116.389C354.739 116.389 345.36 116.384 335.982 116.442C328.081 116.491 320.184 116.58 312.286 116.794C295.077 117.258 277.717 118.269 260.698 121.322C243.434 124.416 227.364 129.47 211.679 137.435C196.26 145.265 182.152 155.493 169.919 167.696C157.688 179.897 147.435 193.968 139.587 209.345C131.596 225.001 126.529 241.039 123.425 258.271C120.369 275.241 119.356 292.552 118.89 309.712C118.678 317.591 118.586 325.47 118.538 333.35C118.481 342.706 118 354.328 118 363.684L118.003 468.963L118 551.12L118.486 658.636C118.486 668.004 118.482 677.372 118.538 686.74C118.586 694.632 118.678 702.521 118.891 710.41C119.356 727.601 120.371 744.941 123.43 761.942C126.533 779.187 131.599 795.238 139.583 810.906C147.432 826.309 157.687 840.401 169.919 852.62C182.151 864.838 196.255 875.078 211.671 882.919C227.366 890.901 243.443 895.962 260.718 899.062C277.729 902.115 295.084 903.128 312.286 903.592C320.184 903.805 328.082 903.896 335.983 903.944C345.361 904.001 354.739 903.997 364.117 903.997L471.841 904H553.329L660.844 903.996C670.204 903.996 679.564 904.001 688.925 903.944C696.809 903.896 704.692 903.805 712.575 903.592C729.75 903.127 747.077 902.113 764.063 899.058C781.294 895.958 797.332 890.899 812.988 882.922C828.377 875.082 842.457 864.84 854.666 852.62C866.874 840.403 877.106 826.312 884.94 810.913C892.914 795.237 897.971 779.178 901.069 761.921C904.12 744.928 905.132 727.594 905.595 710.41C905.809 702.52 905.9 694.631 905.946 686.74C906.005 677.372 906 668.004 906 658.636C906 658.636 905.994 553.018 905.994 551.12V468.877C905.994 467.475 906 361.415 906 361.415Z" fill="white"/>
</mask>
<g mask="url(#mask1_1510_998)">
<rect x="62.5336" y="56.7075" width="874.067" height="874.067" fill="url(#paint3_linear_1510_998)"/>
<g filter="url(#filter2_b_1510_998)">
<rect x="118" y="116" width="788" height="788" rx="126" fill="#191924" fill-opacity="0.01"/>
</g>
<path d="M643.545 482.833C643.545 472.151 634.879 463.492 624.189 463.492C613.499 463.492 604.833 472.151 604.833 482.833V752.687H569.808V602.563C569.808 591.882 561.142 583.222 550.452 583.222C539.762 583.222 531.097 591.882 531.097 602.563V752.687H496.072V635.719C496.072 625.038 487.406 616.378 476.716 616.378C466.026 616.378 457.36 625.038 457.36 635.719V752.687H422.335V598.879C422.335 588.197 413.669 579.538 402.979 579.538C392.289 579.538 383.623 588.197 383.623 598.879V752.687H348.599V618.22C348.599 607.539 339.933 598.879 329.243 598.879C318.553 598.879 309.887 607.539 309.887 618.22V752.687H276.705L276.705 619.141C276.705 606.934 266.802 597.037 254.585 597.037C242.367 597.037 232.464 606.934 232.464 619.141L232.464 796.895L795.626 796.895V619.141C795.626 606.934 785.722 597.037 773.505 597.037C761.288 597.037 751.384 606.934 751.384 619.141V752.687H717.281V589.669C717.281 578.987 708.615 570.328 697.925 570.328C687.235 570.328 678.57 578.987 678.57 589.669V752.687H643.545V482.833Z" fill="#6237C6"/>
<path fill-rule="evenodd" clip-rule="evenodd" d="M233.405 223.105V525.335C223.934 525.142 215.514 524.183 209.391 523.158C198.856 521.394 188.886 528.505 187.122 539.04C185.359 549.575 192.469 559.546 203.004 561.309C218.983 563.984 249.285 566.667 278.885 559.136C309.204 551.422 340.848 532.189 352.489 490.312C361.17 459.085 373.99 453.039 379.058 452.87C384.973 452.673 400.242 458.866 415.786 493.123C424.611 512.571 434.689 529.042 446.574 539.984C459.025 551.449 475.297 558.205 493.383 552.669C509.536 547.725 522.522 534.175 533.299 517.533C544.413 500.373 555.092 476.935 565.48 447.326C575.114 419.869 585.84 401.504 596.185 390.261C606.346 379.219 615.301 375.836 622.482 375.701C629.912 375.561 639.248 378.828 650.041 388.537C660.859 398.268 672.052 413.579 682.405 434.7C704.592 479.964 723.395 511.335 743.442 531.301C748.603 536.44 753.828 540.808 759.162 544.478C760.673 545.768 762.36 546.858 764.181 547.708C779.494 556.89 795.79 560.654 814.064 560.654C824.746 560.654 833.405 551.995 833.405 541.313C833.405 530.631 824.746 521.972 814.064 521.972C807.325 521.972 801.294 521.288 795.613 519.614V223.105H233.405ZM751.405 479.561V267.314H277.614V519.148C295.326 512.852 309.319 501.18 315.22 479.951C324.973 444.865 345.757 415.278 377.767 414.209C408.932 413.169 434.219 440.131 451.012 477.139C459.008 494.762 466.5 505.749 472.776 511.528C478.477 516.778 480.957 516.019 482.057 515.682L482.061 515.681C485.091 514.753 491.721 510.574 500.831 496.506C509.607 482.957 519.09 462.704 528.979 434.52C539.623 404.184 552.574 380.528 567.72 364.069C583.05 347.409 601.4 337.409 621.755 337.026C641.861 336.647 660.292 345.728 675.911 359.778C691.506 373.806 705.371 393.666 717.139 417.674C730.242 444.405 741.367 464.5 751.405 479.561Z" fill="#F6F6F9"/>
</g>
<defs>
<filter id="filter0_d_1510_998" x="90" y="98" width="844" height="844" filterUnits="userSpaceOnUse" color-interpolation-filters="sRGB">
<feFlood flood-opacity="0" result="BackgroundImageFix"/>
<feColorMatrix in="SourceAlpha" type="matrix" values="0 0 0 0 0 0 0 0 0 0 0 0 0 0 0 0 0 0 127 0" result="hardAlpha"/>
<feOffset dy="10"/>
<feGaussianBlur stdDeviation="5"/>
<feColorMatrix type="matrix" values="0 0 0 0 0 0 0 0 0 0 0 0 0 0 0 0 0 0 0.3 0"/>
<feBlend mode="normal" in2="BackgroundImageFix" result="effect1_dropShadow_1510_998"/>
<feBlend mode="normal" in="SourceGraphic" in2="effect1_dropShadow_1510_998" result="shape"/>
</filter>
<filter id="filter1_b_1510_998" x="89.1269" y="87.1269" width="845.746" height="845.746" filterUnits="userSpaceOnUse" color-interpolation-filters="sRGB">
<feFlood flood-opacity="0" result="BackgroundImageFix"/>
<feGaussianBlur in="BackgroundImageFix" stdDeviation="5.43656"/>
<feComposite in2="SourceAlpha" operator="in" result="effect1_backgroundBlur_1510_998"/>
<feBlend mode="normal" in="SourceGraphic" in2="effect1_backgroundBlur_1510_998" result="shape"/>
</filter>
<filter id="filter2_b_1510_998" x="107.127" y="105.127" width="809.746" height="809.746" filterUnits="userSpaceOnUse" color-interpolation-filters="sRGB">
<feFlood flood-opacity="0" result="BackgroundImageFix"/>
<feGaussianBlur in="BackgroundImageFix" stdDeviation="5.43656"/>
<feComposite in2="SourceAlpha" operator="in" result="effect1_backgroundBlur_1510_998"/>
<feBlend mode="normal" in="SourceGraphic" in2="effect1_backgroundBlur_1510_998" result="shape"/>
</filter>
<linearGradient id="paint0_linear_1510_998" x1="-181.14" y1="98" x2="-181.14" y2="1484.28" gradientUnits="userSpaceOnUse">
<stop stop-color="white"/>
<stop offset="0.489516" stop-color="#EFEFEF"/>
<stop offset="1" stop-color="#C0C0C0"/>
</linearGradient>
<linearGradient id="paint1_linear_1510_998" x1="928.377" y1="992.826" x2="928.377" y2="134.072" gradientUnits="userSpaceOnUse">
<stop stop-color="#27283F"/>
<stop offset="1" stop-color="#53556E"/>
</linearGradient>
<linearGradient id="paint2_linear_1510_998" x1="-150.858" y1="116" x2="-150.858" y2="1441.72" gradientUnits="userSpaceOnUse">
<stop stop-color="white"/>
<stop offset="0.489516" stop-color="#EFEFEF"/>
<stop offset="1" stop-color="#C0C0C0"/>
</linearGradient>
<linearGradient id="paint3_linear_1510_998" x1="910.184" y1="971.73" x2="910.184" y2="150.495" gradientUnits="userSpaceOnUse">
<stop stop-color="#191924"/>
<stop offset="1" stop-color="#27283F"/>
</linearGradient>
</defs>
</svg>
