<svg width="1024" height="1024" viewBox="0 0 1024 1024" fill="none" xmlns="http://www.w3.org/2000/svg">
<g filter="url(#filter0_d_1508_937)">
<path fill-rule="evenodd" clip-rule="evenodd" d="M924 354.627C924 344.845 924.004 335.062 923.944 325.279C923.895 317.038 923.8 308.799 923.576 300.562C923.092 282.609 922.033 264.502 918.84 246.749C915.602 228.741 910.314 211.98 901.981 195.617C893.789 179.534 883.088 164.817 870.32 152.058C857.555 139.299 842.834 128.605 826.746 120.418C810.366 112.083 793.587 106.797 775.558 103.56C757.803 100.372 739.691 99.315 721.738 98.83C713.495 98.607 705.253 98.513 697.008 98.462C687.22 98.402 677.432 98.407 667.644 98.407L553.997 98H468.997L357.361 98.407C347.554 98.407 337.747 98.402 327.94 98.462C319.678 98.513 311.42 98.607 303.161 98.83C285.167 99.315 267.014 100.373 249.217 103.565C231.164 106.801 214.36 112.085 197.958 120.414C181.835 128.602 167.083 139.297 154.291 152.058C141.501 164.816 130.78 179.53 122.573 195.61C114.217 211.981 108.919 228.752 105.673 246.77C102.477 264.516 101.418 282.617 100.931 300.562C100.709 308.8 100.613 317.039 100.563 325.279C100.503 335.063 100 347.216 100 356.999L100.003 467.089L100 552.998L100.508 665.427C100.508 675.223 100.504 685.019 100.563 694.815C100.613 703.067 100.709 711.317 100.932 719.566C101.418 737.542 102.479 755.675 105.678 773.452C108.923 791.484 114.22 808.269 122.569 824.653C130.777 840.759 141.5 855.495 154.291 868.272C167.082 881.049 181.83 891.757 197.95 899.956C214.362 908.302 231.174 913.595 249.238 916.836C267.027 920.029 285.174 921.088 303.161 921.573C311.42 921.796 319.679 921.891 327.941 921.941C337.748 922.001 347.554 921.997 357.361 921.997L470.006 922H555.217L667.644 921.996C677.432 921.996 687.22 922.001 697.008 921.941C705.253 921.891 713.495 921.796 721.738 921.573C739.698 921.087 757.816 920.027 775.579 916.832C793.597 913.591 810.368 908.3 826.739 899.959C842.831 891.761 857.554 881.051 870.32 868.272C883.086 855.497 893.786 840.763 901.978 824.66C910.316 808.268 915.604 791.475 918.844 773.431C922.034 755.661 923.092 737.535 923.577 719.566C923.8 711.316 923.895 703.066 923.944 694.815C924.005 685.019 924 675.223 924 665.427C924 665.427 923.994 554.983 923.994 552.998V466.999C923.994 465.533 924 354.627 924 354.627Z" fill="url(#paint0_linear_1508_937)"/>
</g>
<mask id="mask0_1508_937" style="mask-type:luminance" maskUnits="userSpaceOnUse" x="100" y="98" width="824" height="824">
<path fill-rule="evenodd" clip-rule="evenodd" d="M924 354.627C924 344.845 924.004 335.062 923.944 325.279C923.895 317.038 923.8 308.799 923.576 300.562C923.092 282.609 922.033 264.502 918.84 246.749C915.602 228.741 910.314 211.98 901.981 195.617C893.789 179.534 883.088 164.817 870.32 152.058C857.555 139.299 842.834 128.605 826.746 120.418C810.366 112.083 793.587 106.797 775.558 103.56C757.803 100.372 739.691 99.315 721.738 98.83C713.495 98.607 705.253 98.513 697.008 98.462C687.22 98.402 677.432 98.407 667.644 98.407L553.997 98H468.997L357.361 98.407C347.554 98.407 337.747 98.402 327.94 98.462C319.678 98.513 311.42 98.607 303.161 98.83C285.167 99.315 267.014 100.373 249.217 103.565C231.164 106.801 214.36 112.085 197.958 120.414C181.835 128.602 167.083 139.297 154.291 152.058C141.501 164.816 130.78 179.53 122.573 195.61C114.217 211.981 108.919 228.752 105.673 246.77C102.477 264.516 101.418 282.617 100.931 300.562C100.709 308.8 100.613 317.039 100.563 325.279C100.503 335.063 100 347.216 100 356.999L100.003 467.089L100 552.998L100.508 665.427C100.508 675.223 100.504 685.019 100.563 694.815C100.613 703.067 100.709 711.317 100.932 719.566C101.418 737.542 102.479 755.675 105.678 773.452C108.923 791.484 114.22 808.269 122.569 824.653C130.777 840.759 141.5 855.495 154.291 868.272C167.082 881.049 181.83 891.757 197.95 899.956C214.362 908.302 231.174 913.595 249.238 916.836C267.027 920.029 285.174 921.088 303.161 921.573C311.42 921.796 319.679 921.891 327.941 921.941C337.748 922.001 347.554 921.997 357.361 921.997L470.006 922H555.217L667.644 921.996C677.432 921.996 687.22 922.001 697.008 921.941C705.253 921.891 713.495 921.796 721.738 921.573C739.698 921.087 757.816 920.027 775.579 916.832C793.597 913.591 810.368 908.3 826.739 899.959C842.831 891.761 857.554 881.051 870.32 868.272C883.086 855.497 893.786 840.763 901.978 824.66C910.316 808.268 915.604 791.475 918.844 773.431C922.034 755.661 923.092 737.535 923.577 719.566C923.8 711.316 923.895 703.066 923.944 694.815C924.005 685.019 924 675.223 924 665.427C924 665.427 923.994 554.983 923.994 552.998V466.999C923.994 465.533 924 354.627 924 354.627Z" fill="white"/>
</mask>
<g mask="url(#mask0_1508_937)">
<rect x="42" y="36" width="914" height="914" fill="url(#paint1_linear_1508_937)"/>
<g filter="url(#filter1_b_1508_937)">
<rect x="100" y="98" width="824" height="824" rx="126" fill="#191924" fill-opacity="0.01"/>
</g>
<path d="M649.554 481.59C649.554 470.42 640.492 461.365 629.314 461.365C618.136 461.365 609.074 470.42 609.074 481.59V763.772H572.449V606.79C572.449 595.62 563.387 586.565 552.209 586.565C541.031 586.565 531.969 595.62 531.969 606.79V763.772H495.344V641.461C495.344 630.291 486.282 621.236 475.104 621.236C463.926 621.236 454.864 630.291 454.864 641.461V763.772H418.239V602.938C418.239 591.768 409.177 582.713 397.999 582.713C386.82 582.713 377.759 591.768 377.759 602.938V763.772H341.134V623.163C341.134 611.993 332.072 602.938 320.894 602.938C309.715 602.938 300.653 611.993 300.653 623.163V763.772H265.956L265.956 624.126C265.956 611.36 255.6 601.012 242.825 601.012C230.049 601.012 219.693 611.36 219.693 624.126L219.693 810L808.584 810V624.126C808.584 611.36 798.227 601.012 785.452 601.012C772.677 601.012 762.321 611.36 762.321 624.126V763.772H726.659V593.307C726.659 582.137 717.598 573.082 706.419 573.082C695.241 573.082 686.179 582.137 686.179 593.307V763.772H649.554V481.59Z" fill="#6237C6"/>
<path fill-rule="evenodd" clip-rule="evenodd" d="M220.678 210V526.037C210.775 525.836 201.97 524.833 195.567 523.761C184.551 521.917 174.125 529.352 172.281 540.369C170.436 551.385 177.872 561.811 188.889 563.655C205.597 566.452 237.284 569.258 268.236 561.382C299.94 553.316 333.029 533.204 345.202 489.414C354.28 456.761 367.686 450.439 372.986 450.262C379.17 450.055 395.136 456.532 411.391 492.354C420.619 512.69 431.158 529.913 443.585 541.356C456.605 553.345 473.621 560.409 492.533 554.62C509.424 549.45 523.003 535.282 534.273 517.879C545.894 499.935 557.061 475.426 567.924 444.465C577.998 415.753 589.214 396.549 600.031 384.793C610.657 373.246 620.02 369.708 627.53 369.567C635.3 369.421 645.062 372.837 656.348 382.989C667.66 393.165 679.365 409.175 690.191 431.261C713.392 478.593 733.054 511.397 754.017 532.276C759.412 537.65 764.877 542.217 770.455 546.055C772.034 547.404 773.798 548.544 775.703 549.432C791.715 559.034 808.756 562.97 827.865 562.97C839.034 562.97 848.089 553.915 848.089 542.745C848.089 531.575 839.034 522.52 827.865 522.52C820.818 522.52 814.511 521.805 808.571 520.055V210H220.678ZM762.343 478.172V256.228H266.906V519.568C285.427 512.984 300.06 500.778 306.231 478.58C316.43 441.891 338.162 410.953 371.636 409.835C404.224 408.747 430.666 436.941 448.226 475.64C456.588 494.068 464.422 505.557 470.985 511.6C476.946 517.089 479.539 516.296 480.689 515.943L480.694 515.942C483.863 514.972 490.795 510.602 500.322 495.891C509.498 481.723 519.415 460.545 529.756 431.073C540.886 399.352 554.428 374.615 570.266 357.403C586.296 339.983 605.485 329.525 626.769 329.125C647.794 328.729 667.067 338.225 683.4 352.917C699.707 367.586 714.206 388.353 726.512 413.458C740.213 441.41 751.846 462.423 762.343 478.172Z" fill="#F6F6F9"/>
</g>
<defs>
<filter id="filter0_d_1508_937" x="90" y="98" width="844" height="844" filterUnits="userSpaceOnUse" color-interpolation-filters="sRGB">
<feFlood flood-opacity="0" result="BackgroundImageFix"/>
<feColorMatrix in="SourceAlpha" type="matrix" values="0 0 0 0 0 0 0 0 0 0 0 0 0 0 0 0 0 0 127 0" result="hardAlpha"/>
<feOffset dy="10"/>
<feGaussianBlur stdDeviation="5"/>
<feColorMatrix type="matrix" values="0 0 0 0 0 0 0 0 0 0 0 0 0 0 0 0 0 0 0.3 0"/>
<feBlend mode="normal" in2="BackgroundImageFix" result="effect1_dropShadow_1508_937"/>
<feBlend mode="normal" in="SourceGraphic" in2="effect1_dropShadow_1508_937" result="shape"/>
</filter>
<filter id="filter1_b_1508_937" x="89.1269" y="87.1269" width="845.746" height="845.746" filterUnits="userSpaceOnUse" color-interpolation-filters="sRGB">
<feFlood flood-opacity="0" result="BackgroundImageFix"/>
<feGaussianBlur in="BackgroundImageFix" stdDeviation="5.43656"/>
<feComposite in2="SourceAlpha" operator="in" result="effect1_backgroundBlur_1508_937"/>
<feBlend mode="normal" in="SourceGraphic" in2="effect1_backgroundBlur_1508_937" result="shape"/>
</filter>
<linearGradient id="paint0_linear_1508_937" x1="-181.14" y1="98" x2="-181.14" y2="1484.28" gradientUnits="userSpaceOnUse">
<stop stop-color="white"/>
<stop offset="0.489516" stop-color="#EFEFEF"/>
<stop offset="1" stop-color="#C0C0C0"/>
</linearGradient>
<linearGradient id="paint1_linear_1508_937" x1="928.377" y1="992.826" x2="928.377" y2="134.072" gradientUnits="userSpaceOnUse">
<stop stop-color="#191924"/>
<stop offset="1" stop-color="#27283F"/>
</linearGradient>
</defs>
</svg>
